<?xml version="1.0" encoding="UTF-8" standalone="no"?>
<svg width="24px" height="24px" viewBox="0 0 24 24" version="1.1" xmlns="http://www.w3.org/2000/svg" xmlns:xlink="http://www.w3.org/1999/xlink">
    <!-- Generator: Sketch 46.2 (44496) - http://www.bohemiancoding.com/sketch -->
    <title>Custom Preset Copy 2</title>
    <desc>Created with Sketch.</desc>
    <defs></defs>
    <g id="Page-1" stroke="none" stroke-width="1" fill="none" fill-rule="evenodd">
        <g id="Custom-Preset-Copy-2" fill-rule="nonzero" fill="#4A4A4A">
            <g id="-poop-dead">
                <path d="M4.29876112,23.4672047 C1.58439876,22.8808593 0.145701533,21.1767229 0.109295006,18.6870904 C0.0762344554,16.4262701 1.09344558,14.8293133 3.07846737,13.9979578 C2.57859035,12.7664381 2.5280388,11.640681 2.95821708,10.6427985 C3.39186766,9.63686121 4.31594875,8.97563546 5.67174079,8.63925971 C5.67327736,7.83365165 5.95478323,7.09243502 6.5083947,6.44250388 C7.15450107,5.68398519 8.18163712,5.03512155 9.58753514,4.47533887 C10.3433885,4.06742454 11.0454084,3.58867814 11.6942483,3.03873885 C12.3442505,2.48781446 12.8480821,1.94410375 13.2072861,1.41056045 L14.1064711,0.0749564646 L14.4082166,1.65715786 C14.5299373,2.29540009 14.5778822,2.89421908 14.550459,3.45377012 C14.5286845,3.89806316 14.4745702,4.32459138 14.3878658,4.73304765 C15.3800913,5.11119541 16.184591,5.64571583 16.7926827,6.33942107 C17.289357,6.90602246 17.5766602,7.6140523 17.6605539,8.4466342 C19.1339807,8.57797405 20.1632938,9.1064217 20.6828821,10.0756057 C21.3424754,11.3059398 21.4378335,12.6034124 20.9759102,13.9240661 C23.0268193,14.8123456 24.0344288,16.4445353 23.9057019,18.7150038 C23.7638749,21.2165317 22.3391772,22.8171752 19.7653108,23.3965364 L19.6935094,23.4126985 L19.6199167,23.4126985 L11.4204689,23.4126636 L4.71764894,23.4814612 C4.57989106,23.5035808 4.43927226,23.4975573 4.29876112,23.4672047 Z M13.2234576,3.43891027 L13.2231456,3.44447719 C13.2232503,3.44262201 13.2233542,3.44076637 13.2234576,3.43891027 Z M13.2231456,3.44447719 C13.0154403,3.64414878 12.7912281,3.8485757 12.5508743,4.0522931 C11.8211693,4.67077143 11.0307075,5.20807722 10.1801713,5.66383372 L10.1107761,5.69600966 C8.87074709,6.18611808 8.00699766,6.72923455 7.51720095,7.30424817 C7.07428731,7.8242218 6.91867557,8.3904739 7.03456692,9.05703673 L7.14923944,9.71658927 L6.4896907,9.82593049 C5.20801349,10.0384093 4.46576066,10.4959764 4.17558817,11.1690882 C3.84337169,11.9397293 3.95878252,12.8948883 4.57390614,14.0712387 L4.94784649,14.7863549 L4.1750029,15.0157778 C2.28229301,15.5776392 1.40704799,16.747985 1.4351197,18.6676474 C1.46219106,20.5189012 2.44689599,21.6966647 4.53871584,22.1605335 L4.64209166,22.1543167 L11.413674,22.0848481 L19.5446946,22.0848481 C21.5062862,21.6226747 22.4756577,20.513042 22.5818671,18.6397341 C22.6890489,16.7492752 21.8352181,15.5617087 19.8951893,14.9349024 L19.1661914,14.6993695 L19.5035229,14.0106691 C20.0791134,12.8355358 20.0791134,11.7566191 19.5146317,10.7036959 C19.1936009,10.1048797 18.3917481,9.76317894 17.0127576,9.74263933 L16.3470491,9.73272382 L16.3597547,9.06611737 C16.3750622,8.26300715 16.1833354,7.65706706 15.7961899,7.21541511 C15.2439452,6.58541952 14.4510641,6.11227087 13.4026572,5.80079171 L12.758553,5.60942992 L12.9581853,4.96701059 C13.1036959,4.49875569 13.1922838,3.99157317 13.2231456,3.44447719 Z" id="Path-4"></path>
                <path d="M12.4640884,20.5816801 C11.1459281,20.5816801 10.0773481,19.5115821 10.0773481,18.1915495 C10.0773481,16.8715168 11.1459281,15.8014189 12.4640884,15.8014189 C13.7822487,15.8014189 14.8508287,16.8715168 14.8508287,18.1915495 C14.8508287,19.5115821 13.7822487,20.5816801 12.4640884,20.5816801 Z M12.4640884,19.5193998 C13.1963997,19.5193998 13.7900552,18.924901 13.7900552,18.1915495 C13.7900552,17.458198 13.1963997,16.8636991 12.4640884,16.8636991 C11.7317771,16.8636991 11.1381215,17.458198 11.1381215,18.1915495 C11.1381215,18.924901 11.7317771,19.5193998 12.4640884,19.5193998 Z" id="Oval-2"></path>
                <path d="M7.24926933,14.1188237 L9.10562292,15.9778141 C9.31275183,16.1852372 9.64857414,16.1852372 9.85570304,15.9778141 C10.062832,15.770391 10.062832,15.4340917 9.85570304,15.2266685 L7.99934945,13.3676781 C7.79222055,13.160255 7.45639824,13.160255 7.24926933,13.3676781 C7.04214043,13.5751012 7.04214043,13.9114005 7.24926933,14.1188237 Z" id="Path-6"></path>
                <path d="M7.24926933,14.1188237 L9.10562292,15.9778141 C9.31275183,16.1852372 9.64857414,16.1852372 9.85570304,15.9778141 C10.062832,15.770391 10.062832,15.4340917 9.85570304,15.2266685 L7.99934945,13.3676781 C7.79222055,13.160255 7.45639824,13.160255 7.24926933,13.3676781 C7.04214043,13.5751012 7.04214043,13.9114005 7.24926933,14.1188237 Z" id="Path-6" transform="translate(8.552486, 14.672746) scale(1, -1) translate(-8.552486, -14.672746) "></path>
                <path d="M15.2050704,14.1188237 L17.061424,15.9778141 C17.2685529,16.1852372 17.6043752,16.1852372 17.8115041,15.9778141 C18.0186331,15.770391 18.0186331,15.4340917 17.8115041,15.2266685 L15.9551506,13.3676781 C15.7480217,13.160255 15.4121993,13.160255 15.2050704,13.3676781 C14.9979415,13.5751012 14.9979415,13.9114005 15.2050704,14.1188237 Z" id="Path-6"></path>
                <path d="M15.2050704,14.1188237 L17.061424,15.9778141 C17.2685529,16.1852372 17.6043752,16.1852372 17.8115041,15.9778141 C18.0186331,15.770391 18.0186331,15.4340917 17.8115041,15.2266685 L15.9551506,13.3676781 C15.7480217,13.160255 15.4121993,13.160255 15.2050704,13.3676781 C14.9979415,13.5751012 14.9979415,13.9114005 15.2050704,14.1188237 Z" id="Path-6" transform="translate(16.508287, 14.672746) scale(1, -1) translate(-16.508287, -14.672746) "></path>
            </g>
        </g>
    </g>
</svg>