<?xml version="1.0" encoding="UTF-8" standalone="no"?>
<svg width="24px" height="24px" viewBox="0 0 24 24" version="1.1" xmlns="http://www.w3.org/2000/svg" xmlns:xlink="http://www.w3.org/1999/xlink">
    <!-- Generator: Sketch 46.2 (44496) - http://www.bohemiancoding.com/sketch -->
    <title>Custom Preset</title>
    <desc>Created with Sketch.</desc>
    <defs></defs>
    <g id="Page-1" stroke="none" stroke-width="1" fill="none" fill-rule="evenodd">
        <g id="Custom-Preset" fill="#4A4A4A">
            <g id="-poop-happy">
                <path d="M4.18254428,23.3161283 C1.47317157,22.7316909 0.0371190025,21.0330998 0.000779398772,18.5515688 C-0.0322203785,16.2981053 0.983120872,14.7063452 2.96449372,13.877695 C2.46553559,12.6501827 2.41507697,11.5280889 2.84446449,10.5334535 C3.27731791,9.53078966 4.19970032,8.87171559 5.5530001,8.53643443 C5.55453384,7.73344786 5.83552224,6.9946432 6.38811604,6.34682698 C7.03303471,5.59077657 8.05828264,4.94402437 9.46159629,4.38606326 C10.2160602,3.97947632 10.9167896,3.50228779 11.5644368,2.95413804 C12.2132442,2.40500639 12.7161496,1.86306495 13.0746933,1.33125784 L13.9722254,0 L14.2734162,1.5770528 C14.3949132,2.21321815 14.44277,2.81008854 14.4153971,3.36781877 C14.3936626,3.81066605 14.3396478,4.23580631 14.2531028,4.64293345 C15.2435044,5.01985068 16.0465253,5.55263174 16.6534991,6.24407961 C17.1492604,6.80883724 17.4360355,7.5145631 17.5197749,8.34443573 C18.9904933,8.47534819 20.0179142,9.00207623 20.5365474,9.9681064 C21.1949282,11.1944369 21.290111,12.4876875 20.8290369,13.8040437 C22.8761759,14.6894327 23.8819332,16.3163112 23.7534429,18.5793914 C23.6118766,21.0727791 22.1897978,22.668214 19.6206628,23.24569 L19.5489934,23.2617994 L19.4755359,23.2617994 L11.2911607,23.2617646 L4.60066209,23.3303384 C4.46315745,23.352386 4.32279713,23.3463821 4.18254428,23.3161283 Z M4.52524371,22.0075125 L11.2843783,21.93827 L19.4004521,21.93827 C21.3584379,21.4776005 22.3260275,20.3715787 22.4320416,18.5043666 C22.5390264,16.6200594 21.6867651,15.4363573 19.7503025,14.8115906 L19.0226448,14.5768243 L19.3593561,13.8903649 C19.9338886,12.7190555 19.9338886,11.6436497 19.3704445,10.5941528 C19.0500039,9.99728522 18.2496251,9.65669634 16.8731694,9.63622357 L16.2086846,9.62634032 L16.2213669,8.96190306 C16.2366462,8.16140621 16.0452719,7.5574379 15.6588381,7.11722311 C15.1076085,6.48927757 14.3161849,6.01766858 13.2697052,5.707203 L12.6267851,5.51646391 L12.8260504,4.87613505 C12.971786,4.40782122 13.0603176,3.90044285 13.090835,3.35300727 C12.8832001,3.55757792 12.6594001,3.76133963 12.4194881,3.96439412 C11.6911245,4.58085988 10.9021158,5.11641723 10.0531431,5.57069067 L9.98387544,5.60276191 C8.74612587,6.09127548 7.88396422,6.63262462 7.39506787,7.2057671 C6.95296841,7.7240487 6.79764272,8.28845818 6.91332103,8.95285197 L7.02778275,9.61025828 L6.36944643,9.7192437 C5.09012524,9.93103112 4.34923685,10.3871093 4.05959776,11.0580307 C3.72799197,11.826164 3.84319065,12.7782149 4.45718353,13.9507373 L4.83043648,14.6635265 L4.05901356,14.8922029 C2.16978293,15.4522359 1.29614681,16.6187734 1.32416692,18.5321891 C1.35118851,20.3774187 2.33408333,21.5513497 4.42205792,22.013709 L4.52524371,22.0075125 Z" id="Path-4" fill-rule="nonzero"></path>
                <path d="M8.38235294,15.8235294 C7.35900179,15.8235294 6.52941176,14.9939394 6.52941176,13.9705882 C6.52941176,12.9472371 7.35900179,12.1176471 8.38235294,12.1176471 C9.4057041,12.1176471 10.2352941,12.9472371 10.2352941,13.9705882 C10.2352941,14.9939394 9.4057041,15.8235294 8.38235294,15.8235294 Z M8.58114085,13.7675997 C8.53588871,13.947316 8.4743168,14.1085996 8.39642513,14.2514505 C8.31853347,14.3943013 8.22181608,14.5233153 8.10627298,14.6384924 C8.31297668,14.6345933 8.48788549,14.6656674 8.6309994,14.7317146 C8.7741133,14.7977618 8.90695094,14.9087129 9.02951229,15.064568 C9.02139437,14.89618 9.05355092,14.7395602 9.12598195,14.5947086 C9.19841298,14.449857 9.31571357,14.307584 9.47788373,14.1678898 C9.31578124,14.1586735 9.15531622,14.1186165 8.99648868,14.0477187 C8.83766115,13.9768209 8.69921187,13.8834479 8.58114085,13.7675997 Z" id="Combined-Shape"></path>
                <path d="M13.8440928,15.6190062 C13.2467622,15.3114323 12.8382353,14.6887186 12.8382353,13.9705882 C12.8382353,12.9472371 13.6678253,12.1176471 14.6911765,12.1176471 C15.6645685,12.1176471 16.4626561,12.8682145 16.5382601,13.8221702 C16.2843818,13.6914447 15.9963973,13.6176471 15.6911765,13.6176471 C14.6678253,13.6176471 13.8382353,14.4472371 13.8382353,15.4705882 C13.8382353,15.5205474 13.8402125,15.5700447 13.8440928,15.6190062 Z" id="Combined-Shape" transform="translate(14.688248, 13.868327) rotate(15.000000) translate(-14.688248, -13.868327) "></path>
                <path d="M9.5,17.5 L14.6499016,17.5 C14.2994789,18.8482259 13.441162,19.5223389 12.0749508,19.5223389 C10.7087396,19.5223389 9.85042269,18.8482259 9.5,17.5 Z" id="Path-7"></path>
            </g>
        </g>
    </g>
</svg>