<?xml version="1.0" encoding="UTF-8" standalone="no"?>
<svg width="24px" height="24px" viewBox="0 0 24 24" version="1.1" xmlns="http://www.w3.org/2000/svg" xmlns:xlink="http://www.w3.org/1999/xlink">
    <!-- Generator: Sketch 46.2 (44496) - http://www.bohemiancoding.com/sketch -->
    <title>Custom Preset Copy</title>
    <desc>Created with Sketch.</desc>
    <defs></defs>
    <g id="Page-1" stroke="none" stroke-width="1" fill="none" fill-rule="evenodd">
        <g id="Custom-Preset-Copy" fill-rule="nonzero" fill="#4A4A4A">
            <g id="-poop-medium">
                <path d="M4.15808496,23.1797766 C1.46455653,22.5987571 0.0369019323,20.9100993 0.000774840885,18.4430801 C-0.0320319552,16.2027947 0.977371627,14.6203431 2.9471575,13.7965388 C2.45111726,12.576205 2.40095372,11.4606732 2.82783019,10.4718544 C3.25815231,9.47505405 4.17514067,8.81983421 5.52052642,8.48651376 C5.52205119,7.68822302 5.80139638,6.95373886 6.35075864,6.30971104 C6.99190585,5.55808197 8.01115818,4.91511195 9.40626532,4.36041377 C10.1563172,3.95620453 10.8529487,3.48180657 11.4968085,2.93686238 C12.1418217,2.39094203 12.6417862,1.85216984 12.9982331,1.3234727 L13.8905165,0 L14.1899459,1.56783027 C14.3107324,2.20027535 14.3583093,2.79365528 14.3310966,3.34812392 C14.3094892,3.78838145 14.2557902,4.21103552 14.1697514,4.61578179 C15.1543611,4.99049483 15.9526859,5.52016021 16.5561102,6.20756453 C17.0489723,6.76901948 17.3340704,7.47061829 17.4173201,8.29563786 C18.8794378,8.42578475 19.9008504,8.94943251 20.4164507,9.90981338 C21.0709813,11.1289724 21.1656075,12.4146601 20.7072296,13.7233183 C22.7423971,14.6035296 23.7422727,16.2208941 23.6145339,18.47074 C23.4737954,20.9495465 22.0600329,22.5356513 19.505922,23.1097503 L19.4346718,23.1257655 L19.3616439,23.1257655 L11.2251305,23.1257309 L4.57375763,23.1939037 C4.43705711,23.2158224 4.29751762,23.2098536 4.15808496,23.1797766 Z M13.0142805,3.33339904 L13.0139709,3.3389154 C13.0140747,3.33707707 13.0141779,3.33523828 13.0142805,3.33339904 Z M13.0139709,3.3389154 C12.8078598,3.53677337 12.5853685,3.73934349 12.3468595,3.94121053 C11.6227554,4.55407122 10.8383607,5.08649666 9.99435275,5.53811353 L9.9254902,5.56999722 C8.69497894,6.05565399 7.83785916,6.59383734 7.35182186,7.16362811 C6.91230777,7.67887883 6.75789042,8.23998766 6.87289226,8.90049611 L6.98668461,9.55405794 L6.3321982,9.66240601 C5.06035842,9.87295491 4.32380271,10.3263659 4.03585742,10.9933639 C3.70619084,11.7570052 3.82071585,12.7034885 4.43111813,13.8691541 L4.80218832,14.5777749 L4.03527664,14.805114 C2.15709414,15.361872 1.288567,16.5215876 1.31642325,18.4238137 C1.34328682,20.2582525 2.32043372,21.4253184 4.39619793,21.8849739 L4.49878029,21.8788136 L11.2183878,21.809976 L19.2869992,21.809976 C21.2335348,21.3520005 22.1954659,20.2524466 22.3008601,18.3961539 C22.4072192,16.522866 21.5599419,15.3460862 19.6348037,14.7249731 L18.9114012,14.4915797 L19.2461435,13.8091347 C19.8173161,12.6446751 19.8173161,11.5755582 19.257167,10.5321987 C18.9386003,9.93882157 18.1429021,9.60022444 16.7744959,9.57987138 L16.113897,9.57004594 L16.1265051,8.90949427 C16.1416951,8.11367869 15.9514399,7.51324235 15.5672659,7.07560193 C15.0192599,6.45132858 14.2324645,5.98247754 13.1921046,5.67382754 L12.5529442,5.48420389 L12.7510443,4.84761964 C12.895438,4.3836179 12.983346,3.88104211 13.0139709,3.3389154 Z" id="Path-4"></path>
                <path d="M12.038742,18.9851457 C12.1522734,18.2932127 12.336884,18.0526316 12.573416,18.0526316 C12.8099481,18.0526316 12.9945587,18.2932127 13.10809,18.9851457 L14.1468321,18.8147104 C13.9598564,17.6751604 13.4417702,17 12.573416,17 C11.7050619,17 11.1869757,17.6751604 11,18.8147104 L12.038742,18.9851457 Z" id="Path-3"></path>
                <path d="M8.01700289,15.2050172 L8.26776788,16.227343 L10.7173014,15.6265001 C11.1451888,15.5215442 11.2624512,14.9687147 10.9140172,14.6990908 L8.59574132,12.9051712 L7.95154487,13.7376639 L9.40714498,14.864031 L8.01700289,15.2050172 Z" id="Path-5"></path>
                <path d="M13.3854239,15.2050172 L13.6361889,16.227343 L16.0857225,15.6265001 C16.5136099,15.5215442 16.6308723,14.9687147 16.2824382,14.6990908 L13.9641624,12.9051712 L13.3199659,13.7376639 L14.775566,14.864031 L13.3854239,15.2050172 Z" id="Path-5" transform="translate(14.903458, 14.566257) scale(-1, 1) translate(-14.903458, -14.566257) "></path>
            </g>
        </g>
    </g>
</svg>