<?xml version="1.0" encoding="UTF-8" standalone="no"?>
<svg width="24px" height="24px" viewBox="0 0 24 24" version="1.1" xmlns="http://www.w3.org/2000/svg" xmlns:xlink="http://www.w3.org/1999/xlink">
    <!-- Generator: Sketch 46.2 (44496) - http://www.bohemiancoding.com/sketch -->
    <title>Custom Preset Copy 3</title>
    <desc>Created with Sketch.</desc>
    <defs></defs>
    <g id="Page-1" stroke="none" stroke-width="1" fill="none" fill-rule="evenodd">
        <g id="Custom-Preset-Copy-3" fill-rule="nonzero">
            <g id="caveira2" transform="translate(1.000000, 0.000000)">
                <path d="M0.127055698,10.8257477 C0.0564764154,10.4111456 0.0380379819,9.93393363 0.0715246682,9.39398167 C0.649513386,3.15367093 4.28676826,0.0272020725 10.9627995,0.0272020725 C17.6384927,0.0272020725 21.3244205,3.15316313 22.0007278,9.39333482 C22.043241,9.97978572 22.0197407,10.4857168 21.9298431,10.911347 C21.845836,11.3090885 21.6978301,11.6304958 21.4852216,11.8745978 C21.6361696,13.0161698 21.4912971,13.9517644 21.0486292,14.6795931 C20.5912242,15.4316522 19.9014996,15.848799 18.9924468,15.9272308 L17.7749589,16.1784529 L17.7743825,17.9184617 C17.6540512,18.7832899 17.4632496,19.5454167 17.2017834,20.2048513 C16.9712342,20.7863112 16.6692228,21.2646021 16.2998395,21.6344399 C15.0850275,23.1331485 13.3041496,23.8823267 10.9627995,23.8823267 C8.62358065,23.8823267 6.87795956,23.1344333 5.73209037,21.6380685 C5.54051974,21.4694241 5.29127286,21.0122622 4.97599717,20.2587588 C4.66082625,19.5055058 4.39404006,18.727992 4.17416471,17.9192692 L3.87048812,15.9285136 L2.65414508,15.9285136 C1.76456396,15.579801 1.15267921,15.0694913 0.798392868,14.3934372 C0.493830815,13.8122676 0.391312517,12.9711349 0.488086226,11.8693483 C0.316782168,11.582068 0.196572856,11.2341105 0.127055698,10.8257477 Z" id="Path-9" fill="#000000"></path>
                <path d="M1.11799165,11.3081689 C0.981635703,10.697067 0.927769667,10.0315154 0.95625002,9.31158047 C1.01895334,8.20935002 1.15936263,7.39932467 1.37907912,6.87848079 C2.88519037,3.30820332 6.6746051,0.889167746 11.0528457,0.889167746 C15.5201665,0.889167746 19.326966,3.34399437 20.8010424,7.10241924 C20.9832062,7.5668788 21.0988366,8.30231972 21.1492893,9.3090471 C21.201276,9.95457526 21.1731408,10.5755722 21.0648183,11.171916 C21.0064795,11.4930865 20.8703519,11.7900722 20.6570068,12.0621991 C20.818989,13.0791772 20.621105,13.8532319 20.0602657,14.3773959 C19.647851,14.7628413 19.1402457,15.028964 18.5384936,15.1756709 L16.9115161,17.8003165 L16.0793934,20.4194985 C15.2025042,22.0918328 13.5222823,22.9276433 11.0491765,22.9276433 C8.57581588,22.9276433 6.91038417,22.0915898 6.0669865,20.4243029 C5.83011543,20.0566974 5.66950519,19.7705433 5.58479891,19.5645057 C5.56513671,19.5166798 5.5556761,19.4612139 5.54472422,19.3526065 C5.50536135,18.9622542 5.48392845,18.8293103 5.38915358,18.542673 C5.3435899,18.4048702 5.21041933,18.1583527 4.99201591,17.8089039 L3.03462994,14.908145 C2.03409401,14.795831 1.43559138,14.2423286 1.25114489,13.2581337 C1.16371459,12.7916111 1.26030922,12.3874606 1.54041615,12.0509188 C1.32524372,11.8529373 1.18418667,11.6048328 1.11799165,11.3081689 Z" id="Path-10" fill="#FFFFFF"></path>
                <path d="M10.3903724,10.7898401 C10.6839084,10.3116393 10.9408437,10.0725389 11.1611782,10.0725389 C11.3815128,10.0725389 11.6222378,10.3116393 11.8833534,10.7898401 C12.1593664,11.3129863 12.2469161,11.6680042 12.1460024,11.8548938 C12.0450888,12.0417834 11.7168141,12.1325824 11.1611782,12.1272908 C10.5653218,12.1361221 10.2159811,12.0453231 10.1131562,11.8548938 C10.0103312,11.6644645 10.1027366,11.3094466 10.3903724,10.7898401 Z" id="Rectangle-3" fill="#000000"></path>
                <path d="M5.3888468,12.4255826 C5.54303239,13.4069202 5.63032965,14.1016978 5.65076593,14.5113032 C5.70303139,15.5588617 5.60604999,16.4369124 5.38733507,17.2248498 C5.22117896,17.82344 4.70962248,18.1109244 3.86501512,18.0866468 C3.16416865,17.9860825 2.7130082,17.7015887 2.52085737,17.2317561 C2.33919729,16.7875748 2.41599784,16.1716117 2.75086257,15.3729365 C3.16071681,14.7414932 3.51988593,14.2656497 3.8290858,13.944948 C4.13471445,13.6279503 4.61898771,13.1105969 5.28174982,12.3930463 L5.36890853,12.2986824 L5.3888468,12.4255826 Z" id="Path-6" fill="#000000"></path>
                <path d="M4.86020408,14.0421629 C4.94533542,14.5839943 4.99355089,14.9677294 5.00487785,15.1947562 C5.03383537,15.7751529 4.98004886,16.2621254 4.85869235,16.6993217 C4.76323672,17.0432079 4.46913467,17.2084873 3.98873572,17.1945037 C3.59345723,17.1377853 3.33609385,16.9754965 3.22596915,16.706228 C3.12247859,16.4531808 3.16567773,16.1067109 3.35517012,15.655888 C3.58197026,15.3064676 3.78094373,15.0428585 3.95280639,14.8646028 C4.12109784,14.6900511 4.38791666,14.4050062 4.7531071,14.0096266 L4.84026581,13.9152628 L4.86020408,14.0421629 Z" id="Path-6" fill="#FFFFFF"></path>
                <path d="M18.9368094,12.4255826 C19.090995,13.4069202 19.1782923,14.1016978 19.1987286,14.5113032 C19.250994,15.5588617 19.1540126,16.4369124 18.9352977,17.2248498 C18.7691416,17.82344 18.2575851,18.1109244 17.4129778,18.0866468 C16.7121313,17.9860825 16.2609708,17.7015887 16.06882,17.2317561 C15.8871599,16.7875748 15.9639605,16.1716117 16.2988252,15.3729365 C16.7086795,14.7414932 17.0678486,14.2656497 17.3770484,13.944948 C17.6826771,13.6279503 18.1669504,13.1105969 18.8297125,12.3930463 L18.9168712,12.2986824 L18.9368094,12.4255826 Z" id="Path-6" fill="#000000" transform="translate(17.592825, 15.193374) scale(-1, 1) translate(-17.592825, -15.193374) "></path>
                <path d="M18.3140577,14.0421629 C18.399189,14.5839943 18.4474045,14.9677294 18.4587314,15.1947562 C18.487689,15.7751529 18.4339025,16.2621254 18.3125459,16.6993217 C18.2170903,17.0432079 17.9229883,17.2084873 17.4425893,17.1945037 C17.0473108,17.1377853 16.7899474,16.9754965 16.6798227,16.706228 C16.5763322,16.4531808 16.6195313,16.1067109 16.8090237,15.655888 C17.0358239,15.3064676 17.2347973,15.0428585 17.40666,14.8646028 C17.5749514,14.6900511 17.8417703,14.4050062 18.2069607,14.0096266 L18.2941194,13.9152628 L18.3140577,14.0421629 Z" id="Path-6" fill="#FFFFFF" transform="translate(17.545730, 15.555292) scale(-1, 1) translate(-17.545730, -15.555292) "></path>
                <path d="M7.20824487,10.7917851 C6.64124633,10.7841363 6.19215844,10.9967623 5.85845033,11.4274067 C5.36991259,12.1903979 4.96639142,12.5593262 4.6297959,12.5255144 C3.92523171,12.4547393 3.55249293,11.865849 3.50949278,10.7860445 C3.45896163,10.0343266 3.5806591,9.35385794 3.87487459,8.74568851 C4.4118448,7.6357236 4.99666331,6.85333724 5.63039145,6.39961754 C6.16959257,6.00092572 6.75201167,5.77881828 7.3765027,5.73411272 C8.02779703,5.6874884 8.6353459,5.95167124 9.20231719,6.53005474 C9.52729076,6.98691026 9.72909709,7.35010906 9.80783271,7.62227791 C9.95463496,8.12973561 10.044324,8.77166209 10.0769268,9.55844097 L9.96271362,10.5199635 C9.76102594,11.0950415 9.50029345,11.4372592 9.17262361,11.5546626 C8.83731184,11.6748041 8.48336999,11.4774675 8.11213751,10.9814865 C7.70384279,10.8575101 7.40168205,10.7943946 7.20824487,10.7917851 Z" id="Path-7" fill="#000000"></path>
                <path d="M15.9129081,10.7917851 C15.3459095,10.7841363 14.8968217,10.9967623 14.5631135,11.4274067 C14.0745758,12.1903979 13.6710546,12.5593262 13.3344591,12.5255144 C12.6298949,12.4547393 12.2571561,11.865849 12.214156,10.7860445 C12.1636248,10.0343266 12.2853223,9.35385794 12.5795378,8.74568851 C13.116508,7.6357236 13.7013265,6.85333724 14.3350547,6.39961754 C14.8742558,6.00092572 15.4566749,5.77881828 16.0811659,5.73411272 C16.7324602,5.6874884 17.3400091,5.95167124 17.9069804,6.53005474 C18.231954,6.98691026 18.4337603,7.35010906 18.5124959,7.62227791 C18.6592982,8.12973561 18.7489872,8.77166209 18.78159,9.55844097 L18.6673768,10.5199635 C18.4656892,11.0950415 18.2049567,11.4372592 17.8772868,11.5546626 C17.5419751,11.6748041 17.1880332,11.4774675 16.8168007,10.9814865 C16.408506,10.8575101 16.1063453,10.7943946 15.9129081,10.7917851 Z" id="Path-7" fill="#000000" transform="translate(15.492314, 9.128256) scale(-1, 1) translate(-15.492314, -9.128256) "></path>
                <path d="M11.0333549,12.801773 C11.6211595,12.801773 12.1447035,13.0667646 12.6043675,13.5972394 C13.4019369,14.7043994 13.8838544,15.5021892 14.0513802,15.9950906 C14.2488927,16.5762196 14.3726922,17.5606358 14.4241326,18.9501812 C14.462242,19.656767 14.3335808,20.2460024 14.0369664,20.7163353 C13.8322664,21.0409221 13.4560151,21.2387493 12.9055354,21.3128221 C12.5481562,21.3154622 12.1625567,21.226205 11.7487832,21.0457382 C11.4733275,20.9255985 11.2221355,20.7454254 10.9954053,20.5056791 C10.6316385,20.8054376 10.271903,21.0340012 9.91607228,21.1911845 C9.6439193,21.3114044 9.37538496,21.3519768 9.11481131,21.3125198 C8.63520539,21.2649194 8.268465,21.0380258 8.01985644,20.6348008 C7.77939552,20.2447906 7.65435012,19.6847676 7.64262909,18.9577302 C7.57738357,17.9941447 7.68698753,17.1061973 7.97168645,16.2943532 C8.31414755,15.3177951 8.83103018,14.4176789 9.52208845,13.5942754 C9.93993093,13.0673253 10.4450064,12.801773 11.0333549,12.801773 Z" id="Path-8" fill="#000000"></path>
            </g>
        </g>
    </g>
</svg>