<?xml version="1.0" encoding="UTF-8" standalone="no"?>
<svg width="23px" height="24px" viewBox="0 0 23 24" version="1.1" xmlns="http://www.w3.org/2000/svg" xmlns:xlink="http://www.w3.org/1999/xlink">
    <!-- Generator: Sketch 46.2 (44496) - http://www.bohemiancoding.com/sketch -->
    <title>caveira1</title>
    <desc>Created with Sketch.</desc>
    <defs></defs>
    <g id="Page-1" stroke="none" stroke-width="1" fill="none" fill-rule="evenodd">
        <g id="Custom-Preset-Copy-3" transform="translate(-1.000000, 0.000000)" fill-rule="nonzero">
            <g id="caveira1" transform="translate(1.000000, 0.000000)">
                <path d="M4.46324455,18.2505167 C3.57718308,18.2305832 2.86190985,17.9756778 2.32022495,17.4850474 C1.76827104,16.9851159 1.42208802,16.2635819 1.28080171,15.3229777 C1.35244921,14.6928251 1.35244921,14.2709041 1.28290769,14.0459618 C1.20429825,13.7916879 1.08685317,13.5621506 0.910672613,13.2906381 C0.869627396,13.2273832 0.667729174,12.9301759 0.619000231,12.8526895 C0.519718209,12.6948159 0.46134795,12.5729373 0.435599225,12.4553116 C0.302991811,11.849533 0.17063312,10.9132664 0.038048924,9.63500462 C0.452982451,3.2370504 4.17227626,0.030677356 11.1733066,0.030677356 C18.174337,0.030677356 21.8936308,3.2370504 22.3085643,9.63500462 C22.3488223,10.4176825 22.2595077,11.2064154 22.0407814,12.0018107 C21.9496041,12.3333756 21.8537671,12.5635293 21.7151178,12.8162993 C21.6910104,12.8602493 21.678031,12.8831882 21.6265694,12.9734188 C21.411226,13.3509929 21.3153149,13.5777071 21.2097375,14.0413544 C21.1516559,14.2964222 21.1516559,14.719438 21.2110644,15.3081451 C21.2673478,15.9485914 20.9512914,16.5996936 20.2690471,17.2605241 C19.6017221,17.9069035 18.8472543,18.2377727 18.0082851,18.2510174 C17.3163293,22.0389061 15.0326409,23.939627 11.1733066,23.939627 C7.31378331,23.939627 5.07149882,22.0385066 4.46324455,18.2505167 Z" id="Path-4" fill="#000000"></path>
                <path d="M3.11380024,16.88451 C2.44458717,16.4742372 2.11623703,15.8740701 2.13324303,15.0979558 C2.10070599,14.6750371 2.2291421,14.3140821 2.51727909,14.0197747 C2.91984194,13.6085909 3.50499877,13.4039185 4.26490854,13.4040479 C4.82038271,13.3683474 5.1984385,13.3900256 5.40495137,13.4721769 C5.41513554,13.4762282 5.61395583,13.5309515 5.7061581,13.5620456 C5.89369812,13.6252913 6.06807476,13.7062381 6.23322002,13.8159874 C6.42486381,13.9433466 6.59107474,14.1019936 6.72607429,14.2970774 C6.98893475,14.6769292 7.40752183,14.872395 7.97973356,14.8836656 C8.54480558,14.813048 9.03289199,14.4707253 9.44568627,13.8517969 C9.89397424,13.1796505 10.1251087,12.4375641 10.1395177,11.6274302 C10.1056143,10.653063 9.77659387,9.86877197 9.1521501,9.27092129 C8.28269866,8.43849706 7.4213857,8.08263459 6.55630335,8.19833068 C5.44254201,8.17984098 4.61128277,8.53498122 4.05594048,9.263624 C3.18262041,10.4094729 2.90075534,11.6013319 3.20763306,12.8441504 L3.23224222,12.9438146 L3.13229541,12.9203797 C2.8786697,12.8609111 2.6592076,12.8817183 2.47121105,12.9815329 C2.28352478,13.0811827 2.14720195,13.2489438 2.06151355,13.4879491 L2.01917743,13.6060346 L1.94997116,13.5014066 C1.51957744,12.8507248 1.26832434,12.2278528 1.19716795,11.632704 C1.12693865,11.0453092 1.09186846,10.3309361 1.09186846,9.48936518 C2.04157671,3.70828302 5.4542052,0.815772251 11.3138089,0.815772251 C17.1739383,0.815772251 20.5168005,3.7090492 21.3254233,9.48988084 C21.3180241,10.3913538 21.228466,11.2047196 21.0565939,11.9300017 C20.9113382,12.542965 20.6829419,13.0675422 20.3711628,13.5033038 L20.3066751,13.5934357 L20.2624572,13.4918129 C20.1523733,13.2388154 20.0205074,13.0689424 19.8686648,12.9803004 C19.7184188,12.8925905 19.5270659,12.8719965 19.292129,12.9207291 L19.2024439,12.9393323 L19.2173825,12.8489646 C19.5121859,11.0656095 18.9419993,9.66113884 17.5031359,8.62543483 C17.0444313,8.29525604 16.417924,8.15216065 15.6262772,8.19780325 C14.5734375,8.33622732 13.7621759,8.69390234 13.1903199,9.26980844 C12.6190273,9.84514718 12.2938876,10.631012 12.2157195,11.6259269 C12.2058549,12.5353574 12.4466234,13.3351823 12.9381683,14.0273498 C13.3446389,14.5997203 13.8378756,14.8831806 14.4210772,14.88319 C14.8362655,14.8760247 15.2251298,14.775477 15.5884832,14.5813648 C15.6693558,14.5381607 15.7400966,14.4927117 15.8027292,14.4445607 C15.8840693,14.3820276 15.9500773,14.3165787 16.0121748,14.2406209 C16.0362689,14.211149 16.0588904,14.1813239 16.0868302,14.1427701 C16.08354,14.1473101 16.1394647,14.0694545 16.1547267,14.0489119 C16.2441852,13.9285009 16.3177414,13.8614027 16.4301698,13.8146561 C17.0193987,13.5696606 17.534419,13.4326256 17.9810133,13.4039288 C18.6611258,13.4162458 19.1932712,13.5546316 19.576656,13.8210771 C19.9982504,14.1140776 20.2669216,14.5348639 20.3827161,15.0884078 C20.4384864,15.8273047 20.078506,16.4280149 19.3114622,16.8837932 C18.6580187,17.27207 17.9541895,17.3347259 17.2051151,17.0720966 C17.0086916,21.0270134 15.039204,23.0152569 11.3138089,23.0152569 C7.59628543,23.0152569 5.56154813,21.0357539 5.2258009,17.0966113 C4.64699786,17.4641413 3.93989575,17.3909623 3.11380024,16.88451 Z" id="Path-5" fill="#FFFFFF"></path>
                <path d="M10.4018325,14.5533377 C10.7306937,14.0175884 11.0185496,13.7497137 11.2654,13.7497137 C11.5122505,13.7497137 11.7819454,14.0175884 12.0744846,14.5533377 C12.3837141,15.1394414 12.4817998,15.5371835 12.3687418,15.7465641 C12.2556838,15.9559448 11.8879032,16.0576709 11.2654,16.0517425 C10.5978359,16.0616366 10.2064542,15.9599105 10.0912549,15.7465641 C9.97605558,15.5332178 10.0795814,15.1354757 10.4018325,14.5533377 Z" id="Rectangle-3" fill="#000000"></path>
                <path d="M11.0883917,17.3844895 C12.5697139,17.3844895 13.4852997,17.2894548 14.359382,16.9536635 C14.5845063,16.8671788 14.904379,16.6749118 15.3328204,16.3796768 C15.3946908,16.3370425 15.4589607,16.2921785 15.5270419,16.2441536 C15.6710509,16.142569 16.1235791,15.8171257 16.1790579,15.777741 C16.4020445,15.6194416 16.5350825,15.5315345 16.6181171,15.4911523 C16.8600449,15.3734953 17.0551189,15.3734953 17.1898975,15.499637 C17.3639362,15.6465055 17.4036923,15.8481222 17.3103076,16.0893345 C17.2523421,16.2390592 17.2235549,16.2709112 16.7713242,16.7301019 C16.5879042,16.9163449 16.4742547,17.0447631 16.3873387,17.1729875 C16.3404175,17.2422087 16.3049428,17.3072273 16.281144,17.3687021 C16.2579435,17.4286314 16.2382559,17.5194641 16.215098,17.6662012 C16.2052321,17.7287151 16.1678372,17.9853394 16.1680255,17.9840748 C16.1466054,18.1279221 16.127446,18.2449905 16.1051586,18.3634236 C16.045957,18.678015 15.9716932,18.9587133 15.8700019,19.225745 C15.6143864,19.8969667 15.2057751,20.4198668 14.5884884,20.7678949 C13.6920929,21.2732855 12.5457573,21.4972686 11.1547265,21.441234 C9.46932613,21.4925595 8.31418404,21.2682663 7.68711865,20.7620526 C7.0439509,20.2428399 6.59872975,19.4987196 6.35125435,18.5318168 C6.19373141,17.7936155 6.07218348,17.3264132 5.98808702,17.1328799 C5.90636642,16.9448142 5.74667454,16.7580459 5.50554788,16.5715863 C5.23508711,16.3406658 5.08805517,16.1842502 5.05673701,16.0856754 C5.02432413,15.983655 5.0589518,15.8321089 5.15486106,15.6231683 C5.31865013,15.4200862 5.47736947,15.3410612 5.63637527,15.3861577 C5.78099765,15.4271747 5.96726953,15.5830626 6.20348631,15.8547493 C7.79805868,16.8749173 9.42601092,17.3844895 11.0883917,17.3844895 Z" id="Path-2" fill="#000000"></path>
                <path d="M7.30210213,17.5265431 C8.52432433,18.0957459 9.81522598,18.3802901 11.1754472,18.3802901 C12.5363546,18.3802901 13.9036222,18.095448 15.2776279,17.5254649 L15.3972989,17.4758214 L15.3621761,17.600529 C14.9455713,19.0797343 13.5437901,19.8172448 11.1754472,19.8172448 C8.80526431,19.8172448 7.47678751,19.0777282 7.21371632,17.5944688 L7.19262648,17.4755591 L7.30210213,17.5265431 Z" id="Path-3" fill="#FFFFFF"></path>
            </g>
        </g>
    </g>
</svg>