<?xml version="1.0" encoding="UTF-8" standalone="no"?>
<svg width="24px" height="24px" viewBox="0 0 24 24" version="1.1" xmlns="http://www.w3.org/2000/svg" xmlns:xlink="http://www.w3.org/1999/xlink">
    <!-- Generator: Sketch 46.2 (44496) - http://www.bohemiancoding.com/sketch -->
    <title>Custom Preset Copy 4</title>
    <desc>Created with Sketch.</desc>
    <defs></defs>
    <g id="Page-1" stroke="none" stroke-width="1" fill="none" fill-rule="evenodd">
        <g id="Custom-Preset-Copy-4">
            <g id="-poop-medium" transform="translate(1.000000, 2.000000)">
                <path d="M3.52769658,21.0647809 C0.894024333,20.4966729 -0.501904604,18.8455408 -0.537228871,16.4333443 C-0.569306627,14.2428431 0.417665764,12.6955571 2.34367862,11.8900595 C1.85866149,10.6968443 1.80961269,9.60610202 2.22700303,8.63925695 C2.64776243,7.66460774 3.54437327,7.02394834 4.85986156,6.69803501 C4.86135245,5.91748407 5.13448996,5.19932177 5.67164418,4.56960568 C6.29854368,3.83467948 7.29514595,3.20599769 8.65925071,2.66362613 C9.39263473,2.26839932 10.0737856,1.80454354 10.7033374,1.27170922 C11.3340169,0.73792043 11.8228711,0.211120954 12.1713969,-0.305827356 L13.0438519,-1.59988955 L13.3366273,-0.0668999553 C13.4547296,0.551490792 13.5012493,1.13168449 13.4746413,1.67383162 C13.453514,2.10430564 13.4010084,2.5175674 13.3168815,2.91331931 C14.279611,3.27970539 15.0601953,3.79760043 15.6502102,4.46972909 C16.1321198,5.01870727 16.4108823,5.704715 16.4922821,6.5114008 C17.9219082,6.63865553 18.9206228,7.15066668 19.4247653,8.08970575 C20.0647508,9.28177232 20.1572742,10.5388892 19.7090825,11.8184661 C21.699024,12.6791171 22.6766802,14.2605403 22.55178,16.4603895 C22.4141691,18.8841114 21.0318235,20.4349695 18.5344706,20.9963107 L18.4648038,21.01197 L18.3933987,21.01197 L10.4376967,21.0119362 L3.93413208,21.0785941 C3.80046935,21.1000256 3.66403073,21.0941895 3.52769658,21.0647809 Z M12.1870877,1.65943396 L12.186785,1.66482773 C12.1868866,1.66303025 12.1869875,1.66123232 12.1870877,1.65943396 Z M12.186785,1.66482773 C11.9852542,1.85828885 11.7677072,2.05635741 11.5344984,2.25373852 C10.8264854,2.85298009 10.0595218,3.37357385 9.23426953,3.81515479 L9.16693726,3.84632995 C7.96377069,4.32119435 7.12569802,4.84741807 6.65046154,5.40454682 C6.22071444,5.90834752 6.06972858,6.45698727 6.18217482,7.10281775 L6.29343846,7.74185598 L5.65349619,7.84779633 C4.40991952,8.05366636 3.68973172,8.49700159 3.4081852,9.14917735 C3.08584455,9.89584886 3.19782456,10.8212992 3.79466234,11.9610611 L4.15748653,12.6539348 L3.40761733,12.8762219 C1.57117222,13.4206075 0.721945689,14.5545516 0.74918291,16.4145061 C0.77544951,18.2081796 1.73088203,19.3493107 3.76051815,19.7987516 L3.86082091,19.7927282 L10.4311038,19.7254203 L18.3204127,19.7254203 C20.223692,19.2776221 21.1642469,18.2025027 21.2672989,16.3874609 C21.3712945,14.5558017 20.5428456,13.4051725 18.6604882,12.797862 L17.9531614,12.569655 L18.280465,11.9023755 C18.8389448,10.7637927 18.8389448,9.71843404 18.2912435,8.69826026 C17.979756,8.11806931 17.20174,7.78699656 15.8637429,7.7670958 L15.2178239,7.75748869 L15.2301519,7.11161595 C15.2450043,6.33348517 15.058977,5.74639186 14.6833402,5.31847677 C14.1475121,4.70807617 13.3782011,4.24964404 12.3609602,3.94785293 L11.7360034,3.76244313 L11.9297012,3.14000521 C12.0708862,2.68631461 12.1568407,2.19490718 12.186785,1.66482773 Z" id="Path-4" fill="#000000" fill-rule="nonzero"></path>
                <path d="M4.04282123,19.9284615 C4.11461862,19.9439489 4.17961366,19.9439489 4.23780633,19.9284615 L10.5090895,19.8641844 L18.1166709,19.8641844 C20.240783,19.3867382 21.3606162,18.1303936 21.4761706,16.0951506 C21.591725,14.0599076 20.6198611,12.7100899 18.5605788,12.0456976 C19.1796379,10.783611 19.1796379,9.57602362 18.5605788,8.42293556 C18.1380542,7.63592171 17.1874778,7.23141857 15.7088496,7.20942612 C15.7258052,6.32111108 15.5007855,5.61095977 15.0337907,5.07897219 C14.4404303,4.40303231 13.6050947,3.90525616 12.5277839,3.58564373 C12.6830619,3.08666582 12.7748544,2.54879548 12.8031614,1.9720327 C12.8260826,1.5050061 12.7855182,0.999087066 12.6814683,0.454275592 C12.3146843,0.998305129 11.8096156,1.54257774 11.1662621,2.08709342 C10.5229086,2.6316091 9.82602196,3.10463649 9.07560224,3.50617561 C7.84047865,3.99365277 6.95836649,4.54752877 6.42926575,5.16780363 C5.90016501,5.78807848 5.70505596,6.49704937 5.84393861,7.2947163 C4.46843904,7.52242574 3.59871126,8.05781521 3.23475527,8.9008847 C2.84473725,9.80432441 2.97442314,10.8761037 3.62381295,12.1162226 C1.60713928,12.7140341 0.613847775,14.0403435 0.643938423,16.0951506 C0.672047932,18.0146712 1.70577539,19.4243386 4.04282123,19.9284615 Z" id="Path-4" fill="#FFFFFF"></path>
                <path d="M9.37441178,17.1916461 C9.52132637,16.2962544 9.86486697,15.8485586 10.4050336,15.8485586 C10.9452002,15.8485586 11.2887408,16.2962544 11.4356554,17.1916461" id="Path-3" stroke="#000000"></path>
                <polyline id="Path-5" stroke="#000000" stroke-linejoin="round" points="6.1342288 11.5587194 8.40098741 13.3127741 6.00588793 13.900265"></polyline>
                <polyline id="Path-5" stroke="#000000" stroke-linejoin="round" transform="translate(14.408116, 12.729492) scale(-1, 1) translate(-14.408116, -12.729492) " points="13.3389072 11.5587194 15.6056658 13.3127741 13.2105663 13.900265"></polyline>
            </g>
        </g>
    </g>
</svg>